<?xml version="1.0" encoding="utf-8"?>
<!-- Generator: Adobe Illustrator 23.0.1, SVG Export Plug-In . SVG Version: 6.00 Build 0)  -->
<svg version="1.1" id="Layer_1" xmlns="http://www.w3.org/2000/svg" xmlns:xlink="http://www.w3.org/1999/xlink" x="0px" y="0px"
	 viewBox="0 0 71 48" style="enable-background:new 0 0 71 48;" xml:space="preserve">
<style type="text/css">
	.st0{fill:#41479B;}
	.st1{fill:#FFE15A;}
</style>
<title>Japan@2x</title>
<desc>Created with Sketch.</desc>
<g id="Flags" transform="translate(-239.000000, -1050.000000)">
	<g id="Japan" transform="translate(70.000000, 70.000000)">
		<g transform="translate(169.000000, 980.000000)">
			<path id="Rounded_Rectangle_7_copy-16" class="st0" d="M6.9,0.5h57.3c3.5,0,6.4,2.8,6.4,6.4v34.3c0,3.5-2.8,6.4-6.4,6.4H6.9
				c-3.5,0-6.4-2.8-6.4-6.4V6.9C0.5,3.4,3.4,0.5,6.9,0.5z"/>
			<g>
				<path class="st1" d="M35.7,8.4l0.4,1.3l1.3,0c0.2,0,0.2,0.2,0.1,0.3l-1.1,0.8l0.4,1.3c0.1,0.2-0.1,0.3-0.3,0.2l-1.1-0.8
					l-1.1,0.8c-0.1,0.1-0.3,0-0.3-0.2l0.4-1.3L33.5,10c-0.1-0.1-0.1-0.3,0.1-0.3l1.3,0l0.4-1.3C35.4,8.3,35.6,8.3,35.7,8.4z"/>
				<path class="st1" d="M35.7,35.8l0.4,1.3l1.3,0c0.2,0,0.2,0.2,0.1,0.3l-1.1,0.8l0.4,1.3c0.1,0.2-0.1,0.3-0.3,0.2l-1.1-0.8
					l-1.1,0.8c-0.1,0.1-0.3,0-0.3-0.2l0.4-1.3l-1.1-0.8c-0.1-0.1-0.1-0.3,0.1-0.3l1.3,0l0.4-1.3C35.4,35.7,35.6,35.7,35.7,35.8z"/>
				<path class="st1" d="M49.4,22.1l0.4,1.3l1.3,0c0.2,0,0.2,0.2,0.1,0.3l-1.1,0.8l0.4,1.3c0.1,0.2-0.1,0.3-0.3,0.2l-1.1-0.8
					L48.1,26c-0.1,0.1-0.3,0-0.3-0.2l0.4-1.3l-1.1-0.8c-0.1-0.1-0.1-0.3,0.1-0.3l1.3,0l0.4-1.3C49.1,22,49.3,22,49.4,22.1z"/>
				<path class="st1" d="M22,22.1l0.4,1.3l1.3,0c0.2,0,0.2,0.2,0.1,0.3l-1.1,0.8l0.4,1.3c0.1,0.2-0.1,0.3-0.3,0.2l-1.1-0.8L20.7,26
					c-0.1,0.1-0.3,0-0.3-0.2l0.4-1.3l-1.1-0.8c-0.1-0.1-0.1-0.3,0.1-0.3l1.3,0l0.4-1.3C21.7,22,21.9,22,22,22.1z"/>
				<path class="st1" d="M24,15l0.4,1.3l1.3,0c0.2,0,0.2,0.2,0.1,0.3l-1.1,0.8l0.4,1.3c0.1,0.2-0.1,0.3-0.3,0.2l-1.1-0.8l-1.1,0.8
					c-0.1,0.1-0.3,0-0.3-0.2l0.4-1.3l-1.1-0.8c-0.1-0.1-0.1-0.3,0.1-0.3l1.3,0l0.4-1.3C23.8,14.8,24,14.8,24,15z"/>
				<path class="st1" d="M47.8,28.7l0.4,1.3l1.3,0c0.2,0,0.2,0.2,0.1,0.3l-1.1,0.8l0.4,1.3c0.1,0.2-0.1,0.3-0.3,0.2l-1.1-0.8
					l-1.1,0.8c-0.1,0.1-0.3,0-0.3-0.2l0.4-1.3l-1.1-0.8c-0.1-0.1-0.1-0.3,0.1-0.3l1.3,0l0.4-1.3C47.5,28.5,47.7,28.5,47.8,28.7z"/>
				<path class="st1" d="M42.8,10l0.4,1.3l1.3,0c0.2,0,0.2,0.2,0.1,0.3l-1.1,0.8l0.4,1.3c0.1,0.2-0.1,0.3-0.3,0.2l-1.1-0.8l-1.1,0.8
					c-0.1,0.1-0.3,0-0.3-0.2l0.4-1.3l-1.1-0.8c-0.1-0.1-0.1-0.3,0.1-0.3l1.3,0l0.4-1.3C42.5,9.8,42.7,9.8,42.8,10z"/>
				<path class="st1" d="M29.1,33.7l0.4,1.3l1.3,0c0.2,0,0.2,0.2,0.1,0.3l-1.1,0.8l0.4,1.3c0.1,0.2-0.1,0.3-0.3,0.2l-1.1-0.8
					l-1.1,0.8c-0.1,0.1-0.3,0-0.3-0.2l0.4-1.3l-1.1-0.8c-0.1-0.1-0.1-0.3,0.1-0.3l1.3,0l0.4-1.3C28.8,33.5,29,33.5,29.1,33.7z"/>
				<path class="st1" d="M47.4,15L47,16.2l-1.3,0c-0.2,0-0.2,0.2-0.1,0.3l1.1,0.8l-0.4,1.3c-0.1,0.2,0.1,0.3,0.3,0.2l1.1-0.8
					l1.1,0.8c0.1,0.1,0.3,0,0.3-0.2l-0.4-1.3l1.1-0.8c0.1-0.1,0.1-0.3-0.1-0.3l-1.3,0L47.8,15C47.7,14.8,47.5,14.8,47.4,15z"/>
				<path class="st1" d="M23.7,28.7L23.3,30l-1.3,0c-0.2,0-0.2,0.2-0.1,0.3l1.1,0.8l-0.4,1.3c-0.1,0.2,0.1,0.3,0.3,0.2l1.1-0.8
					l1.1,0.8c0.1,0.1,0.3,0,0.3-0.2l-0.4-1.3l1.1-0.8c0.1-0.1,0.1-0.3-0.1-0.3l-1.3,0L24,28.7C24,28.5,23.8,28.5,23.7,28.7z"/>
				<path class="st1" d="M28.7,10l-0.4,1.3l-1.3,0c-0.2,0-0.2,0.2-0.1,0.3l1.1,0.8l-0.4,1.3c-0.1,0.2,0.1,0.3,0.3,0.2l1.1-0.8
					l1.1,0.8c0.1,0.1,0.3,0,0.3-0.2l-0.4-1.3l1.1-0.8c0.1-0.1,0.1-0.3-0.1-0.3l-1.3,0L29.1,10C29,9.8,28.8,9.8,28.7,10z"/>
				<path class="st1" d="M42.4,33.7L42,35l-1.3,0c-0.2,0-0.2,0.2-0.1,0.3l1.1,0.8l-0.4,1.3c-0.1,0.2,0.1,0.3,0.3,0.2l1.1-0.8
					l1.1,0.8c0.1,0.1,0.3,0,0.3-0.2l-0.4-1.3l1.1-0.8c0.1-0.1,0.1-0.3-0.1-0.3l-1.3,0l-0.4-1.3C42.7,33.5,42.5,33.5,42.4,33.7z"/>
			</g>
		</g>
	</g>
</g>
</svg>
