<?xml version="1.0" encoding="utf-8"?>
<!-- Generator: Adobe Illustrator 23.0.1, SVG Export Plug-In . SVG Version: 6.00 Build 0)  -->
<svg version="1.1" id="Layer_1" xmlns="http://www.w3.org/2000/svg" xmlns:xlink="http://www.w3.org/1999/xlink" x="0px" y="0px"
	 viewBox="0 0 45 45" style="enable-background:new 0 0 45 45;" xml:space="preserve">
<style type="text/css">
	.st0{fill:#46A3D6;}
</style>
<g>
	<path class="st0" d="M26.8,29.2H4.3l5.9-5.9c0.5-0.5,0.5-1.3,0-1.8c-0.5-0.5-1.3-0.5-1.8,0l-8,8c0,0,0,0,0,0
		c-0.5,0.5-0.5,1.3,0,1.8l8,8c0.5,0.5,1.3,0.5,1.8,0c0.5-0.5,0.5-1.3,0-1.8l-5.9-5.9h22.3c0.7,0,1.3-0.6,1.3-1.3
		C28,29.8,27.4,29.3,26.8,29.2z"/>
	<path class="st0" d="M44.9,14L44.9,14c0-0.1-0.1-0.2-0.2-0.4l-8.1-8.1c-0.5-0.5-1.3-0.5-1.8,0s-0.5,1.3,0,1.8l5.9,5.9H18.3
		c-0.7,0-1.3,0.6-1.3,1.3c0,0.7,0.6,1.3,1.3,1.3c0,0,0,0,0,0h22.4l-5.9,5.9c-0.5,0.5-0.5,1.3,0,1.8c0.5,0.5,1.3,0.5,1.8,0l8-8
		C45,15,45.1,14.5,44.9,14z"/>
</g>
</svg>
