<?xml version="1.0" encoding="utf-8"?>
<!-- Generator: Adobe Illustrator 23.0.1, SVG Export Plug-In . SVG Version: 6.00 Build 0)  -->
<svg version="1.1" id="Layer_1" xmlns="http://www.w3.org/2000/svg" xmlns:xlink="http://www.w3.org/1999/xlink" x="0px" y="0px"
	 viewBox="0 0 45 45" style="enable-background:new 0 0 45 45;" xml:space="preserve">
<style type="text/css">
	.st0{fill:#FFFFFF;}
</style>
<g>
	<path class="st0" d="M34.3,14.2c-0.8,0.7-1,1.9-0.3,2.8c2.2,2.9,3.3,6.6,3.1,10.3c-0.2,4.1-2.2,7.9-5.4,10.5
		c-7.5,6-16.9,2.5-20.8-2.3c-2.2-2.9-3.3-6.6-3.1-10.3c0.2-4.1,2.2-7.9,5.4-10.5c3.1-2.4,7-3.5,10.8-3.1l-5.8,5.8
		c-0.8,0.8-0.8,2.1,0,2.8s2.1,0.8,2.8,0l8.4-8.4c0.8-0.8,0.8-2,0-2.8c0,0,0,0,0,0l-8.4-8.4c-0.8-0.8-2.1-0.8-2.8,0s-0.8,2.1,0,2.8
		l4.2,4.1c-4.3,0-8.4,1.4-11.7,4.1C6.7,14.9,4.2,19.8,3.9,25c-0.3,4.7,1.1,9.3,4,13c3.4,4.2,9,7,14.9,7c9.8,0,17.8-7.7,18.3-17.4
		c0.3-4.7-1.1-9.3-4-13C36.4,13.7,35.2,13.6,34.3,14.2z"/>
</g>
</svg>
